<svg xmlns="http://www.w3.org/2000/svg" width="156" height="50" viewBox="0 0 156 50"><path fill="#149ED5" d="M22.145 25.747a.829.829 0 0 1-.477-.777c0-.656.418-1.016.956-1.016.537 0 1.434.12 3.466.716 1.193.359 2.329.837 3.405 1.437 2.926 1.613 4.839 4.301 4.839 8.543 0 7.828-6.513 12.486-16.311 12.486-8.901 0-16.49-4.121-16.49-14.576 0-.777.12-1.554 1.075-1.554s1.016.837 1.016 1.554c0 8.664 5.854 12.726 14.578 12.726 7.947 0 14.101-3.468 14.101-10.636 0-4.959-3.287-7.229-7.829-8.364-.953-.241-1.97-.359-2.329-.539zm-9.38-1.374c-1.792-.358-3.523-.776-4.958-1.435-3.167-1.375-5.616-4.183-5.616-8.543 0-6.752 5.378-11.53 15.235-11.53 9.321 0 16.071 3.823 16.071 13.442 0 .539-.358 1.018-1.015 1.018-.658 0-1.017-.48-1.017-1.02 0-9.08-6.452-11.647-14.218-11.647-7.529 0-13.084 3.465-13.084 9.56 0 3.166 1.615 5.615 4.001 6.812 1.375.656 3.047 1.134 4.84 1.492l.418-2.51c.119-.777 1.076-.897 1.554-.358l2.987 3.704c.239.299.358.537.358.717 0 .24-.119.479-.417.658l-4.301 3.166c-.478.358-1.375.119-1.255-.778l.417-2.748z"/><circle fill="#E42A85" cx="13.368" cy="12.643" r="4.37"/><circle fill="#E42A85" cx="23.624" cy="35.148" r="4.37"/><g fill="#E42A85"><path d="M50.187 19.104c-.93 0-.84-1.681-2.67-1.681-1.229 0-2.25 1.021-2.25 2.25s.601 1.95 2.7 2.49c2.1.539 4.29 2.22 4.29 5.101a5.16 5.16 0 0 1-5.16 5.16c-1.29 0-2.43-.48-3.33-1.23-.51-.45-1.229-1.17-1.229-1.74 0-.42.33-.75.75-.75.66 0 .75.689 1.229 1.141.48.45 1.23 1.08 2.58 1.08 2.01 0 3.66-1.65 3.66-3.66 0-2.189-1.561-3.24-3.54-3.75-2.37-.6-3.45-1.89-3.45-3.84 0-2.07 1.68-3.75 3.75-3.75 2.04 0 3.42 1.74 3.42 2.43 0 .419-.33.749-.75.749zM59.756 30.925c.93 0 1.8-.359 2.46-.9.779-.629 1.709.48.959 1.141a5.266 5.266 0 0 1-3.419 1.262 5.237 5.237 0 0 1-5.25-5.25c0-2.91 2.34-5.25 5.25-5.25 1.291 0 2.52.479 3.419 1.26.75.66-.18 1.77-.959 1.14a3.923 3.923 0 0 0-2.46-.899c-1.8 0-3.33 1.291-3.66 3h7.141c.42 0 .749.33.749.75s-.329.75-.749.75h-7.141c.33 1.707 1.861 2.996 3.66 2.996zm-1.889-11.192c-.3-.27-.3-.75 0-1.049l2.939-2.939c.3-.3.75-.3 1.05 0 .301.3.301.75 0 1.05l-2.939 2.938c-.3.302-.781.302-1.05 0zM67.646 28.644c0 1.261 1.05 2.28 2.279 2.28s2.279-1.021 2.279-2.28v-.149c0-.42.33-.75.75-.75.422 0 .75.33.75.75v.149c0 2.07-1.68 3.78-3.779 3.78a3.784 3.784 0 0 1-3.779-3.78v-10.77h1.5v4.199h4.32c.42 0 .75.33.75.75s-.33.75-.75.75h-4.32v5.071zM75.716 22.824c0-.42.33-.75.75-.75h6v10.649l-1.648-1.109c-.541.24-1.592.75-2.4.75-2.041 0-3.66-.899-3.66-2.641 0-1.92 2.01-2.939 3.869-2.939.811 0 1.621.15 2.34.359v-3.569h-4.5a.743.743 0 0 1-.751-.75zm5.25 5.88c-.721-.239-1.59-.42-2.34-.42-1.08 0-2.371.359-2.371 1.439 0 .84.99 1.141 2.16 1.141.57 0 1.621-.45 2.55-.93v-1.23h.001zM93.864 31.675c0 .42-.328.75-.75.75a.741.741 0 0 1-.748-.75v-5.971c0-1.26-1.051-2.279-2.281-2.279-1.229 0-2.279 1.021-2.279 2.279v6.57h-1.5v-10.5l1.199 1.199c.721-.75 1.74-1.05 2.58-1.05 1.262 0 2.34.601 3.029 1.529a3.735 3.735 0 0 1 3.031-1.529c2.1 0 3.779 1.71 3.779 3.779v5.971c0 .421-.33.75-.75.75s-.75-.329-.75-.75v-5.971c0-1.26-1.051-2.279-2.279-2.279-1.23 0-2.281 1.021-2.281 2.279v5.973zM107.245 30.925c1.23 0 2.281-1.021 2.281-2.279v-5.971c0-.42.33-.75.75-.75s.75.33.75.75v5.971a3.783 3.783 0 0 1-3.781 3.779c-2.1 0-3.779-1.71-3.779-3.779v-5.971c0-.42.33-.75.75-.75.422 0 .75.33.75.75v5.971c0 1.258 1.051 2.279 2.279 2.279zm-3.24-11.22c-.301-.271-.301-.75 0-1.051l2.939-2.939c.301-.3.75-.3 1.051 0 .299.3.299.75 0 1.05l-2.939 2.94c-.301.3-.78.3-1.051 0zm5.101 0c-.301-.271-.301-.75 0-1.051l2.938-2.939c.301-.3.75-.3 1.051 0s.301.75 0 1.05l-2.939 2.94c-.3.3-.78.3-1.05 0zM117.216 12.715v9.96c.631-.449 1.439-.75 2.281-.75 2.1 0 3.777 1.711 3.777 3.779v5.971c0 .42-.328.75-.75.75a.741.741 0 0 1-.748-.75v-5.971c0-1.26-1.051-2.279-2.279-2.279-1.23 0-2.281 1.021-2.281 2.279v6.57h-1.5v-19.56l1.5.001zM131.466 30.925a3.92 3.92 0 0 0 2.461-.9c.779-.629 1.709.48.959 1.141a5.27 5.27 0 0 1-3.42 1.262 5.237 5.237 0 0 1-5.25-5.25c0-2.91 2.34-5.25 5.25-5.25 1.291 0 2.52.479 3.42 1.26.75.66-.18 1.77-.959 1.14a3.926 3.926 0 0 0-2.461-.899c-1.799 0-3.33 1.291-3.66 3h7.141c.422 0 .75.33.75.75s-.328.75-.75.75h-7.141c.33 1.707 1.861 2.996 3.66 2.996zM144.606 31.675c0 .42-.33.75-.75.75-.24 0-.48-.119-.66-.359-.811-1.17-1.529-2.25-2.131-3.36a51.308 51.308 0 0 1-2.16 3.36c-.18.24-.42.359-.658.359-.42 0-.75-.33-.75-.75 0-.15.029-.301.148-.449.99-1.44 1.859-2.791 2.551-4.142-1.109-2.34-1.74-4.771-1.74-7.919 0-4.2 1.381-6.6 2.58-6.6s2.609 2.398 2.609 6.6c0 3.119-.629 5.579-1.74 7.919.689 1.351 1.561 2.7 2.551 4.142a.88.88 0 0 1 .15.449zm-3.57-17.1c-.6 0-1.08 1.77-1.08 4.59 0 2.34.391 4.26 1.08 6.061.721-1.801 1.109-3.721 1.109-6.061.001-2.79-.509-4.59-1.109-4.59zM151.386 27.265c1.111 2.34 1.74 4.801 1.74 7.92 0 4.199-1.41 6.601-2.609 6.601-1.201 0-2.58-2.399-2.58-6.601 0-3.149.629-5.58 1.74-7.92-.689-1.351-1.561-2.699-2.551-4.14-.389-.601.121-1.2.631-1.2.24 0 .449.12.629.359a50.478 50.478 0 0 1 2.16 3.359c.6-1.109 1.32-2.189 2.131-3.359.18-.239.389-.359.629-.359.541.03 1.021.6.631 1.2-.991 1.438-1.86 2.789-2.551 4.14zm-.869 1.86c-.689 1.8-1.08 3.72-1.08 6.06 0 2.819.48 4.59 1.08 4.59.602 0 1.109-1.799 1.109-4.59 0-2.34-.389-4.26-1.109-6.06z"/></g></svg>